<?xml version="1.0" encoding="utf-8"?>
<!-- Generator: Adobe Illustrator 16.0.0, SVG Export Plug-In . SVG Version: 6.00 Build 0)  -->
<!DOCTYPE svg PUBLIC "-//W3C//DTD SVG 1.0//EN" "http://www.w3.org/TR/2001/REC-SVG-20010904/DTD/svg10.dtd">
<svg version="1.0" id="Layer_1" xmlns="http://www.w3.org/2000/svg" xmlns:xlink="http://www.w3.org/1999/xlink" x="0px" y="0px"
	 width="32px" height="32px" viewBox="0 0 32 32" enable-background="new 0 0 32 32" xml:space="preserve">
<g>
	<g>
		<path fill="#EF4D4D" d="M27.002,29.011h-23c-1.104,0-2-0.896-2-2v-2c0-1.104,0.896-2,2-2h23c0.553,0,1-0.447,1-1s-0.447-1-1-1h-25
			c-1.104,0-2,0.896-2,2v6c0,1.104,0.896,2,2,2h25c0.553,0,1-0.447,1-1S27.555,29.011,27.002,29.011z"/>
		<path fill="#EAEAEA" d="M4.002,23.011c-1.104,0-2,0.896-2,2v2c0,1.104,0.896,2,2,2h23v-6H4.002z"/>
		<g opacity="0.1">
			<rect x="2.002" y="25.011" width="25" height="1"/>
			<path d="M4.002,23.011c-0.738,0-1.376,0.404-1.723,1h24.723v-1H4.002z"/>
			<path d="M2.279,28.011h24.723v-1h-25C2.002,27.377,2.107,27.716,2.279,28.011z"/>
		</g>
	</g>
	<g>
		<path fill="#434854" d="M5.002,13.011h23c1.104,0,2,0.896,2,2v2c0,1.104-0.896,2-2,2h-23c-0.553,0-1,0.447-1,1s0.447,1,1,1h25
			c1.104,0,2-0.896,2-2v-6c0-1.104-0.896-2-2-2h-25c-0.553,0-1,0.447-1,1S4.449,13.011,5.002,13.011z"/>
		<path fill="#EAEAEA" d="M28.002,19.011c1.104,0,2-0.896,2-2v-2c0-1.104-0.896-2-2-2h-23v6H28.002z"/>
		<g opacity="0.1">
			<rect x="5.002" y="16.011" width="25" height="1"/>
			<path d="M28.002,19.011c0.738,0,1.376-0.404,1.723-1H5.002v1H28.002z"/>
			<path d="M29.725,14.011H5.002v1h25C30.002,14.645,29.896,14.306,29.725,14.011z"/>
		</g>
	</g>
	<g>
		<path fill="#469FCC" d="M29.002,9.009h-23c-1.104,0-2-0.896-2-2v-2c0-1.104,0.896-2,2-2h23c0.553,0,1-0.447,1-1s-0.447-1-1-1h-25
			c-1.104,0-2,0.896-2,2v6c0,1.104,0.896,2,2,2h25c0.553,0,1-0.447,1-1S29.555,9.009,29.002,9.009z"/>
		<path fill="#EAEAEA" d="M6.002,3.009c-1.104,0-2,0.896-2,2v2c0,1.104,0.896,2,2,2h23v-6H6.002z"/>
		<g opacity="0.1">
			<rect x="4.002" y="5.009" width="25" height="1"/>
			<path d="M6.002,3.009c-0.738,0-1.376,0.404-1.723,1h24.723v-1H6.002z"/>
			<path d="M4.279,8.009h24.723v-1h-25C4.002,7.375,4.107,7.714,4.279,8.009z"/>
		</g>
		<polygon fill="#EACA44" points="7.002,8.011 7.002,16.011 8.502,15.011 10.002,16.011 10.002,8.011 		"/>
		<polygon opacity="0.1" points="7.002,16.011 7.002,17.011 8.502,16.011 10.002,17.011 10.002,16.011 8.502,15.011 		"/>
		<polygon opacity="0.1" points="8.502,15.011 9.002,15.344 9.002,8.011 8.002,8.011 8.002,15.344 		"/>
	</g>
</g>
</svg>
