<?xml version="1.0" encoding="utf-8"?>
<!-- Generator: Adobe Illustrator 16.0.0, SVG Export Plug-In . SVG Version: 6.00 Build 0)  -->
<!DOCTYPE svg PUBLIC "-//W3C//DTD SVG 1.0//EN" "http://www.w3.org/TR/2001/REC-SVG-20010904/DTD/svg10.dtd">
<svg version="1.0" id="Layer_1" xmlns="http://www.w3.org/2000/svg" xmlns:xlink="http://www.w3.org/1999/xlink" x="0px" y="0px"
	 width="32px" height="32px" viewBox="0 0 32 32" enable-background="new 0 0 32 32" xml:space="preserve">
<g>
	<path fill="#84BF56" d="M31.959,29.961c0,1.104-0.896,2-2,2h-28c-1.104,0-2-0.896-2-2v-28c0-1.104,0.896-2,2-2h28
		c1.104,0,2,0.896,2,2V29.961z"/>
	<g opacity="0.15">
		<rect x="-0.041" y="7.961" width="32" height="4"/>
		<rect x="-0.041" y="15.961" width="32" height="4"/>
		<rect x="-0.041" y="23.961" width="32" height="4"/>
		<path d="M29.959-0.039h-28c-1.104,0-2,0.896-2,2v2h32v-2C31.959,0.856,31.063-0.039,29.959-0.039z"/>
	</g>
	<path fill="#EAEAEA" d="M-0.041,9.961v2c2.209,0,4,1.791,4,4s-1.791,4-4,4v2c3.313,0,6-2.687,6-6S3.272,9.961-0.041,9.961z"/>
	<polygon fill="#FFFFFF" points="31.959,11.961 31.959,9.961 25.959,9.961 25.959,21.961 31.959,21.961 31.959,19.961 
		27.959,19.961 27.959,11.961 	"/>
	<path fill="#EAEAEA" d="M31.959,5.961v-2h-14v6c-3.313,0-6,2.687-6,6s2.687,6,6,6v6h14v-2h-12v-20H31.959z M17.959,19.961
		c-2.209,0-4-1.791-4-4s1.791-4,4-4V19.961z"/>
</g>
</svg>
